<svg width="67" height="65" viewBox="0 0 67 65" fill="none" xmlns="http://www.w3.org/2000/svg">
<path d="M62.5058 16.9816C59.5101 12.0021 55.4467 8.05984 50.3145 5.15392C45.1815 2.24785 39.5778 0.795181 33.4995 0.795181C27.4219 0.795181 21.8163 2.24829 16.6844 5.15392C11.5517 8.05969 7.4885 12.0021 4.49285 16.9816C1.49767 21.9609 0 27.3983 0 33.2938C0 40.3755 2.12971 46.7436 6.39018 52.3997C10.6502 58.0562 16.1535 61.9703 22.8997 64.1424C23.6849 64.2838 24.2663 64.1844 24.6442 63.8466C25.0224 63.5084 25.2112 63.0848 25.2112 62.5776C25.2112 62.4929 25.2037 61.7315 25.1892 60.2925C25.1742 58.8535 25.1672 57.5981 25.1672 56.5269L24.1639 56.6953C23.5242 56.809 22.7173 56.8572 21.743 56.8435C20.7692 56.8303 19.7583 56.7313 18.7116 56.5472C17.6645 56.3648 16.6905 55.9416 15.789 55.2787C14.8879 54.6157 14.2482 53.7479 13.8701 52.6766L13.4339 51.7028C13.1432 51.0545 12.6855 50.3343 12.0602 49.5449C11.4349 48.7548 10.8025 48.2191 10.1628 47.9371L9.85745 47.725C9.65395 47.584 9.46512 47.414 9.29049 47.2167C9.11602 47.0195 8.9854 46.822 8.89816 46.6243C8.81078 46.4265 8.88319 46.2642 9.11618 46.1368C9.34916 46.0095 9.77021 45.9477 10.3812 45.9477L11.2532 46.0741C11.8348 46.1872 12.5543 46.525 13.4124 47.0896C14.2701 47.6537 14.9752 48.3871 15.5278 49.2894C16.1969 50.4464 17.0031 51.328 17.9486 51.9346C18.8934 52.5413 19.846 52.8441 20.8054 52.8441C21.7649 52.8441 22.5935 52.7735 23.2917 52.6331C23.9891 52.492 24.6435 52.2799 25.2544 51.998C25.5161 50.1071 26.2287 48.6544 27.3915 47.639C25.7341 47.47 24.2441 47.2156 22.9206 46.8772C21.5979 46.5384 20.231 45.9885 18.8209 45.2261C17.41 44.4647 16.2395 43.5192 15.3093 42.3913C14.3789 41.2628 13.6153 39.7812 13.0196 37.9479C12.4236 36.1139 12.1256 33.9982 12.1256 31.6004C12.1256 28.1862 13.2744 25.2809 15.5718 22.8828C14.4956 20.316 14.5972 17.4385 15.8768 14.2507C16.7202 13.9965 17.9708 14.1872 19.6281 14.8218C21.2857 15.4566 22.4994 16.0004 23.2703 16.4512C24.0412 16.902 24.6589 17.2839 25.1243 17.5937C27.8292 16.8605 30.6205 16.4938 33.4992 16.4938C36.3778 16.4938 39.1698 16.8605 41.8748 17.5937L43.5323 16.5786C44.6658 15.9012 46.0042 15.2805 47.5445 14.7162C49.0857 14.1523 50.2643 13.9969 51.0789 14.2511C52.3869 17.4391 52.5035 20.3164 51.427 22.8832C53.7242 25.2814 54.8735 28.1874 54.8735 31.6008C54.8735 33.9987 54.5744 36.121 53.9793 37.9691C53.3835 39.8175 52.6133 41.2976 51.6686 42.4125C50.7227 43.5272 49.5448 44.4653 48.1347 45.2265C46.7243 45.9883 45.3569 46.5382 44.0342 46.877C42.7108 47.2159 41.2208 47.4705 39.5635 47.6398C41.075 48.9088 41.831 50.9119 41.831 53.6483V62.5764C41.831 63.0836 42.0128 63.507 42.3767 63.8454C42.7402 64.1832 43.3141 64.2826 44.0994 64.1411C50.8465 61.9693 56.3498 58.055 60.6097 52.3985C64.8691 46.7425 66.9995 40.3743 66.9995 33.2926C66.998 27.3979 65.4996 21.9609 62.5058 16.9816Z" fill="black"/>
</svg>
